<svg width="19.000000" height="19.000000" viewBox="0 0 19 19" fill="none" xmlns="http://www.w3.org/2000/svg" xmlns:xlink="http://www.w3.org/1999/xlink">
	<desc>
			Created with Pixso.
	</desc>
	<defs>
		<clipPath id="clip32433_6">
			<rect width="19.000000" height="19.000000" fill="white" fill-opacity="0"/>
		</clipPath>
	</defs>
	<rect width="19.000000" height="19.000000" fill="#FFFFFF" fill-opacity="0"/>
	<g clip-path="url(#clip32433_6)">
		<path d="M10.74 3.23C10.76 3.23 10.79 3.24 10.81 3.25C11.04 3.31 11.26 3.4 11.48 3.48C11.55 3.53 11.63 3.56 11.71 3.59C11.77 3.63 11.83 3.66 11.9 3.7C11.91 3.72 11.94 3.73 11.97 3.74C12.17 3.87 12.37 4 12.55 4.15C12.64 4.23 12.74 4.31 12.83 4.39C12.84 4.4 12.84 4.4 12.85 4.41C12.93 4.49 13.01 4.58 13.1 4.66C13.33 4.94 13.54 5.22 13.73 5.54C13.81 5.7 13.89 5.86 13.97 6.03C14.01 6.13 14.05 6.24 14.09 6.35C14.1 6.41 14.12 6.47 14.15 6.53C14.15 6.54 14.14 6.56 14.16 6.57C14.16 6.58 14.16 6.59 14.17 6.6C14.17 6.62 14.17 6.63 14.18 6.64C14.18 6.65 14.19 6.66 14.19 6.67C14.19 6.7 14.2 6.72 14.2 6.75C14.21 6.78 14.21 6.82 14.24 6.86C14.25 6.95 14.27 7.04 14.29 7.13C14.29 7.14 14.29 7.16 14.29 7.18C14.29 7.21 14.29 7.23 14.31 7.25C14.31 7.27 14.31 7.29 14.31 7.31C14.32 7.42 14.33 7.53 14.34 7.65C14.34 7.67 14.34 7.68 14.34 7.7C14.35 7.88 14.34 8.06 14.33 8.24C14.32 8.26 14.32 8.28 14.32 8.3C14.31 8.32 14.31 8.35 14.31 8.37C14.31 8.39 14.31 8.41 14.3 8.42C14.28 8.53 14.26 8.63 14.24 8.73C14.21 8.76 14.21 8.8 14.2 8.84C14.2 8.86 14.19 8.89 14.18 8.91C14.18 8.92 14.18 8.93 14.18 8.94C14.16 8.98 14.14 9.01 14.14 9.05C14.11 9.1 14.1 9.16 14.09 9.21C14.05 9.33 14.01 9.44 13.97 9.56C13.89 9.73 13.82 9.91 13.75 10.08C13.66 10.26 13.58 10.44 13.49 10.62C13.45 10.69 13.41 10.76 13.38 10.83C13.37 10.85 13.36 10.87 13.35 10.89C13.3 10.96 13.27 11.03 13.24 11.11C13.12 11.31 13.01 11.52 12.9 11.72C12.79 11.89 12.68 12.06 12.59 12.24C12.57 12.27 12.54 12.29 12.54 12.33C12.49 12.37 12.47 12.43 12.44 12.48C12.32 12.67 12.2 12.86 12.08 13.06C12.05 13.09 12.03 13.13 12.01 13.17C11.98 13.22 11.94 13.26 11.91 13.31C11.9 13.33 11.88 13.34 11.88 13.36C11.86 13.37 11.86 13.39 11.85 13.41C11.83 13.43 11.82 13.45 11.81 13.47C11.79 13.48 11.78 13.5 11.78 13.52C11.74 13.55 11.72 13.59 11.7 13.63C11.65 13.69 11.61 13.75 11.58 13.81C11.39 14.09 11.19 14.37 11 14.65C10.8 14.93 10.6 15.21 10.4 15.48C10.39 15.5 10.38 15.51 10.37 15.52C10.29 15.59 10.2 15.66 10.12 15.74C10.09 15.74 10.07 15.75 10.06 15.77C10.02 15.79 9.98 15.81 9.94 15.83C9.8 15.88 9.66 15.9 9.51 15.92C9.48 15.92 9.46 15.92 9.43 15.92C9.3 15.9 9.17 15.87 9.04 15.83C8.79 15.71 8.6 15.54 8.45 15.3C8.43 15.27 8.4 15.24 8.38 15.21C8.32 15.14 8.27 15.06 8.21 14.98C8.2 14.96 8.2 14.94 8.17 14.93C7.97 14.64 7.77 14.35 7.56 14.06C7.54 14 7.5 13.95 7.45 13.9C7.45 13.88 7.44 13.86 7.42 13.85C7.31 13.66 7.18 13.48 7.06 13.3C6.88 13.03 6.71 12.75 6.53 12.48C6.43 12.31 6.33 12.14 6.23 11.97C6.18 11.88 6.13 11.78 6.07 11.7C5.97 11.5 5.85 11.31 5.75 11.11C5.66 10.95 5.58 10.78 5.49 10.62C5.44 10.51 5.39 10.4 5.34 10.3C5.32 10.25 5.29 10.21 5.27 10.16C5.25 10.11 5.23 10.05 5.2 10C5.1 9.74 4.99 9.48 4.89 9.21C4.88 9.14 4.86 9.06 4.82 8.99C4.77 8.8 4.73 8.61 4.68 8.42C4.68 8.4 4.68 8.38 4.67 8.37C4.67 8.34 4.67 8.32 4.66 8.29C4.66 8.28 4.66 8.26 4.66 8.24C4.65 8.13 4.64 8.02 4.63 7.91C4.63 7.9 4.63 7.89 4.63 7.88C4.63 7.86 4.63 7.85 4.63 7.83C4.64 7.77 4.65 7.7 4.64 7.64C4.65 7.53 4.66 7.42 4.67 7.3C4.68 7.28 4.68 7.25 4.68 7.23C4.69 7.21 4.69 7.2 4.69 7.18C4.69 7.16 4.69 7.14 4.7 7.12C4.74 6.92 4.79 6.72 4.84 6.53C4.86 6.51 4.86 6.48 4.86 6.45C4.94 6.22 5.03 6 5.13 5.78C5.21 5.62 5.3 5.48 5.38 5.33C5.4 5.31 5.41 5.29 5.42 5.27C5.51 5.14 5.61 5.01 5.7 4.88C5.98 4.53 6.31 4.24 6.66 3.97C6.67 3.96 6.68 3.95 6.7 3.95C6.72 3.93 6.74 3.91 6.77 3.89C6.82 3.86 6.87 3.83 6.92 3.79C7.09 3.7 7.25 3.61 7.41 3.53C7.66 3.42 7.91 3.32 8.17 3.24C8.44 3.18 8.71 3.12 8.99 3.09C9.25 3.07 9.51 3.06 9.78 3.08C10.09 3.1 10.39 3.15 10.69 3.21C10.7 3.22 10.7 3.22 10.71 3.21C10.72 3.22 10.73 3.22 10.74 3.23ZM10.56 9.52C10.61 9.51 10.64 9.49 10.67 9.45C10.75 9.4 10.83 9.34 10.89 9.27C10.91 9.26 10.93 9.24 10.94 9.22C11.01 9.15 11.07 9.08 11.12 9C11.13 8.99 11.13 8.99 11.14 8.98C11.16 8.97 11.17 8.95 11.17 8.93L11.17 8.93C11.24 8.84 11.29 8.74 11.33 8.64C11.34 8.62 11.36 8.61 11.36 8.59C11.37 8.58 11.37 8.57 11.37 8.55C11.38 8.53 11.4 8.52 11.39 8.49C11.44 8.4 11.46 8.29 11.48 8.19C11.48 8.15 11.48 8.12 11.48 8.08C11.5 8.07 11.5 8.06 11.5 8.04C11.5 8.03 11.5 8.02 11.5 8.01C11.52 7.85 11.54 7.7 11.48 7.55C11.48 7.54 11.48 7.52 11.48 7.5C11.48 7.49 11.47 7.48 11.46 7.48C11.46 7.45 11.46 7.41 11.46 7.38C11.44 7.26 11.4 7.14 11.35 7.04C11.24 6.74 11.05 6.5 10.82 6.3C10.72 6.21 10.62 6.12 10.49 6.08C10.49 6.07 10.48 6.06 10.47 6.07C10.47 6.06 10.46 6.06 10.46 6.06C10.45 6.04 10.43 6.03 10.41 6.02C10.23 5.93 10.03 5.87 9.82 5.83C9.79 5.83 9.76 5.83 9.73 5.83C9.7 5.81 9.67 5.81 9.64 5.81C9.62 5.81 9.61 5.81 9.59 5.81C9.48 5.81 9.37 5.79 9.26 5.83C9.19 5.83 9.12 5.83 9.05 5.86C8.85 5.9 8.66 5.97 8.49 6.08C8.22 6.23 8 6.43 7.84 6.69C7.82 6.7 7.8 6.72 7.8 6.75L7.8 6.75C7.67 6.94 7.58 7.15 7.54 7.38C7.53 7.4 7.51 7.41 7.52 7.43C7.52 7.45 7.52 7.46 7.52 7.47C7.49 7.52 7.5 7.58 7.5 7.63C7.47 7.76 7.47 7.89 7.5 8.01C7.49 8.07 7.5 8.13 7.52 8.19C7.55 8.39 7.61 8.58 7.71 8.75C7.93 9.19 8.27 9.49 8.72 9.68C8.87 9.75 9.03 9.8 9.19 9.81C9.2 9.81 9.21 9.81 9.23 9.82C9.35 9.85 9.47 9.84 9.59 9.83C9.61 9.83 9.62 9.83 9.64 9.83C9.69 9.83 9.73 9.83 9.77 9.82C9.78 9.81 9.79 9.81 9.8 9.81C9.97 9.79 10.14 9.75 10.29 9.67C10.33 9.67 10.37 9.65 10.4 9.62C10.46 9.59 10.52 9.57 10.56 9.52Z" fill="#00A3FF" fill-opacity="1.000000" fill-rule="nonzero"/>
		<path d="M9.5 0C4.25 0 0 4.25 0 9.5C0 14.74 4.25 19 9.5 19C14.74 19 19 14.74 19 9.5C19 4.25 14.74 0 9.5 0ZM9.5 17.92C4.84 17.92 1.07 14.15 1.07 9.5C1.07 4.84 4.84 1.07 9.5 1.07C14.15 1.07 17.92 4.84 17.92 9.5C17.92 14.15 14.15 17.92 9.5 17.92Z" fill="#00A3FF" fill-opacity="1.000000" fill-rule="nonzero"/>
	</g>
</svg>
