<svg width="270.000000" height="74.000000" viewBox="0 0 270 74" fill="none" xmlns="http://www.w3.org/2000/svg" xmlns:xlink="http://www.w3.org/1999/xlink">
	<desc>
			Created with Pixso.
	</desc>
	<defs>
		<clipPath id="clip32482_240">
			<rect width="99.000000" height="74.000000" fill="white" fill-opacity="0"/>
		</clipPath>
	</defs>
	<path d="M203.04 28.16L207.27 28.16L207.27 24.77L194.99 24.77L194.99 28.16L199.22 28.16L199.22 50.43L203.04 50.43L203.04 28.16ZM222.37 50.43L218.37 50.43L214.14 38.51L214.14 36.19L217.91 36.19L217.91 28.06L213.07 28.06L213.07 50.43L209.24 50.43L209.24 24.77L219.42 24.77C220.96 24.77 221.73 25.55 221.73 27.13L221.73 36.46Q221.73 37.66 221.13 38.23Q220.92 38.43 220.63 38.56Q220.04 38.8 218.14 38.8L222.37 50.43ZM236.97 49.83Q237.56 49.25 237.56 48.08L237.56 24.77L233.72 24.77L233.72 47.13L228.55 47.13L228.55 24.77L224.72 24.77L224.72 48.08Q224.72 49.26 225.31 49.85Q225.89 50.43 227.05 50.43L235.19 50.43Q236.38 50.43 236.97 49.83ZM253.28 48.08C253.28 49.65 252.5 50.43 250.94 50.43L242.93 50.43Q241.83 50.43 241.26 49.87Q240.66 49.29 240.66 48.08L240.66 27.13Q240.66 25.9 241.27 25.32Q241.84 24.77 242.93 24.77L250.94 24.77C252.5 24.77 253.28 25.55 253.28 27.13L253.28 33.13L249.46 33.13L249.46 28.06L244.49 28.06L244.49 47.13L249.46 47.13L249.46 41.74L253.28 41.74L253.28 48.08ZM265.01 50.43L269.24 50.43L263.38 37.13L268.6 24.95L268.6 24.77L264.4 24.77L260.14 35.62L260.14 24.77L256.3 24.77L256.3 50.43L260.14 50.43L260.14 38.98L265.01 50.43ZM185.46 42.26L193.28 42.26L193.28 38.83L185.46 38.83L185.46 42.26Z" fill="#00A3FF" fill-opacity="1.000000" fill-rule="evenodd"/>
	<path d="M167.29 50.43L163.48 50.43L162.71 45.56L157.91 45.56L157.14 50.43L153.35 50.43L153.35 50.36L158.32 24.73L162.35 24.73L167.29 50.43ZM125.62 48.08Q125.62 49.26 125.04 49.84Q124.45 50.43 123.28 50.43L115.27 50.43Q114.17 50.43 113.6 49.87Q113 49.29 113 48.08L113 27.13Q113 25.91 113.61 25.32Q114.18 24.77 115.27 24.77L123.28 24.77Q124.44 24.77 125.03 25.35Q125.62 25.94 125.62 27.13L125.62 33.13L121.8 33.13L121.8 28.06L116.83 28.06L116.83 47.13L121.8 47.13L121.8 41.74L125.62 41.74L125.62 48.08ZM138.72 50.43L128.64 50.43L128.64 24.77L132.48 24.77L132.48 47L138.72 47L138.72 50.43ZM141 50.43L151.64 50.43L151.64 47.03L144.84 47.03L144.84 38.98L150.61 38.98L150.61 35.65L144.84 35.65L144.84 28.16L151.55 28.16L151.55 24.77L141 24.77L141 50.43ZM179.08 50.43L182.44 50.43L182.44 24.77L178.7 24.77L178.7 38.74C178.7 39.19 178.78 39.8 178.95 40.59L172.8 24.77L169.44 24.77L169.44 50.43L173.17 50.43L173.17 36.13C173.17 35.68 173.09 35.06 172.93 34.28L179.08 50.43ZM162.17 42.26L160.3 30.69L158.42 42.26L162.17 42.26Z" fill="#FFFFFF" fill-opacity="1.000000" fill-rule="evenodd"/>
	<rect width="99.000000" height="74.000000" fill="#FFFFFF" fill-opacity="0"/>
	<g clip-path="url(#clip32482_240)">
		<path d="M35.58 27.74C35.58 30.22 35.58 32.87 35.58 35.34C35.58 36.5 34.75 36.5 34.09 36.83C28.82 38.98 23.39 41.12 18.12 43.27C17.79 43.44 17.29 43.44 16.96 43.6L16.96 43.77C17.46 43.77 17.95 43.6 18.44 43.6C23.22 42.45 28.16 41.29 32.94 39.97C35.25 39.31 35.25 39.31 35.25 41.95C35.08 45.09 35.08 48.23 35.08 51.2C35.08 52.36 34.75 52.85 33.43 52.69C26.68 52.19 19.93 51.86 13.17 51.37C10.04 51.2 8.4 49.55 8.07 46.74C7.74 43.6 9.22 40.46 11.69 39.64C12.84 39.14 13.5 36.99 12.68 35.84C11.53 34.35 11.03 32.7 11.2 30.88C11.53 28.24 13.01 26.42 15.97 25.93C14.49 24.11 14.49 22.62 16.47 21.3C17.13 20.97 16.8 20.64 16.63 20.15C15.32 16.84 15.97 15.69 19.76 15.36C20.26 15.36 20.59 15.36 20.59 14.86C20.59 12.71 21.9 11.39 23.88 11.23C26.02 11.06 27.17 12.55 27.83 14.37C27.83 14.37 27.83 14.53 28.16 14.7C29.15 13.7 30.3 12.71 31.79 12.38C34.26 12.05 35.91 13.54 36.07 16.02C36.24 18.82 35.58 20.81 33.11 22.46C29.32 25.1 25.69 28.24 22.07 31.05C21.57 31.38 20.92 31.71 20.59 33.03C25.86 29.89 30.63 26.75 35.58 23.78C35.74 23.78 35.74 23.95 35.91 23.95C35.91 24.44 35.91 24.77 35.91 25.27C32.94 27.25 29.98 29.23 27.17 31.21C26.85 31.38 26.68 31.54 26.35 31.71C26.85 32.04 27.17 31.87 27.5 31.54C30.14 30.39 32.78 29.07 35.58 27.74ZM19.6 33.36C19.43 33.69 18.77 33.53 18.94 33.86C19.1 34.19 19.6 34.02 19.93 33.69C20.09 33.53 20.42 33.53 20.26 33.2C19.93 33.03 19.76 33.2 19.6 33.36ZM25.53 14.86C24.87 17.83 23.22 19.32 20.75 20.48C23.39 21.14 24.87 22.46 25.53 24.94C26.52 22.62 28 21.3 30.63 20.48C27.5 19.65 26.52 17.5 25.53 14.86ZM13.67 32.2C14.99 32.7 15.64 33.36 16.3 34.68C16.96 33.53 17.79 32.7 19.27 32.2C17.62 31.71 16.96 30.55 16.3 29.07C15.81 30.55 14.82 31.38 13.67 32.2Z" fill="#00A3FF" fill-opacity="1.000000" fill-rule="nonzero"/>
		<path d="M33.6 7.92C37.39 6.44 39.7 4.12 40.68 0C42.17 3.79 43.65 6.93 48.1 7.76C44.31 8.91 41.84 10.73 40.52 14.53C39.86 10.57 37.39 8.75 33.6 7.92Z" fill="#00A3FF" fill-opacity="1.000000" fill-rule="nonzero"/>
		<path d="M5.27 42.78C3.95 42.61 3.13 41.95 3.13 40.63C3.13 39.31 3.79 38.32 5.27 38.32C6.58 38.32 7.41 39.14 7.41 40.46C7.41 41.79 6.58 42.61 5.27 42.78Z" fill="#00A3FF" fill-opacity="1.000000" fill-rule="nonzero"/>
		<path d="M1.81 24.94C0.65 24.61 0 24.11 0 22.96C0 21.8 0.82 21.14 1.81 21.14C2.96 21.14 3.78 21.96 3.78 23.12C3.78 24.28 2.96 24.77 1.81 24.94Z" fill="#00A3FF" fill-opacity="1.000000" fill-rule="nonzero"/>
		<path d="M8.4 27.58C7.24 27.41 6.42 26.92 6.42 25.76C6.42 24.61 7.08 23.78 8.4 23.78C9.55 23.78 10.21 24.44 10.21 25.6C10.21 26.75 9.55 27.41 8.4 27.58Z" fill="#00A3FF" fill-opacity="1.000000" fill-rule="nonzero"/>
		<path d="M3.12 29.56C2.3 29.4 1.64 29.07 1.64 28.08C1.64 27.25 2.3 26.59 3.12 26.59C3.95 26.59 4.44 27.08 4.44 27.91C4.61 28.9 3.95 29.4 3.12 29.56Z" fill="#00A3FF" fill-opacity="1.000000" fill-rule="nonzero"/>
		<path d="M13.67 14.2C12.84 14.2 12.35 13.71 12.35 12.88C12.35 12.05 12.84 11.56 13.5 11.56C14.33 11.56 14.82 12.05 14.82 12.88C14.99 13.71 14.49 14.2 13.67 14.2Z" fill="#00A3FF" fill-opacity="1.000000" fill-rule="nonzero"/>
		<path d="M9.22 13.54C9.88 13.7 10.37 14.03 10.37 14.7C10.37 15.36 9.88 15.85 9.22 15.85C8.4 15.85 8.07 15.36 8.07 14.53C8.07 13.87 8.56 13.54 9.22 13.54Z" fill="#00A3FF" fill-opacity="1.000000" fill-rule="nonzero"/>
		<path d="M14.33 7.76C14.99 7.92 15.31 8.09 15.31 8.75C15.31 9.41 14.99 9.74 14.33 9.74C13.83 9.74 13.34 9.41 13.34 8.75C13.34 8.09 13.83 7.76 14.33 7.76Z" fill="#00A3FF" fill-opacity="1.000000" fill-rule="nonzero"/>
		<path d="M10.7 9.91C11.2 9.91 11.53 10.24 11.53 10.73C11.53 11.23 11.2 11.56 10.7 11.56C10.04 11.56 9.71 11.23 9.71 10.57C9.71 10.07 10.04 9.91 10.7 9.91Z" fill="#00A3FF" fill-opacity="1.000000" fill-rule="nonzero"/>
		<path d="M52.87 18.83C58.8 19.16 64.73 19.65 70.33 22.13C80.05 26.42 81.7 33.53 82.03 40.96C82.03 41.95 81.7 42.28 80.71 42.12C74.62 41.79 68.36 41.46 62.26 40.96C58.64 40.63 54.85 40.79 51.22 41.29C48.59 41.62 48.42 41.62 48.26 38.81C48.26 37.66 48.26 36.5 48.09 35.18C47.77 33.03 48.92 31.87 50.9 31.21C52.54 30.72 54.19 30.55 56 30.72C61.6 31.05 67.2 31.38 72.8 31.71C74.45 31.87 76.1 31.87 77.91 32.04C76.76 28.74 74.62 26.42 71.98 24.77C67.2 21.8 61.93 20.64 56.5 19.82C55.34 19.65 54.19 19.49 53.04 19.32C53.04 19.16 52.87 18.99 52.87 18.83Z" fill="#FFFFFF" fill-opacity="1.000000" fill-rule="nonzero"/>
		<path d="M76.76 61.44C76.26 58.14 75.77 54.83 75.44 51.37C75.28 50.21 74.78 49.71 73.79 49.22C69.18 47.24 64.57 45.09 59.96 42.78C69.51 45.58 79.06 49.05 89.44 47.07C88.62 46.58 87.96 46.08 87.14 45.58C86.48 45.09 85.82 44.76 85.16 44.1C88.12 44.43 90.76 45.75 92.74 47.9C95.04 50.37 93.72 53.51 94.22 56.65C95.54 56.32 96.85 55.83 97.84 57.31C98.17 57.97 98.17 58.47 97.68 58.96C96.69 60.12 95.54 59.79 94.22 59.29C94.05 59.96 94.05 60.45 93.89 61.11C92.74 59.62 91.09 60.29 89.77 60.29C86.48 60.29 83.35 60.45 80.05 60.45C79.23 60.45 78.41 60.29 78.24 61.44C77.58 61.44 77.25 61.44 76.76 61.44ZM84.83 54.17C86.97 54.17 89.11 54.17 91.42 54.17C91.91 54.17 92.57 54.34 92.57 53.51C92.57 52.69 92.08 52.69 91.58 52.69C87.14 52.69 82.69 52.69 78.41 52.69C77.91 52.69 77.25 52.69 77.25 53.35C77.25 54.17 77.91 54.01 78.41 54.01C80.38 54.17 82.69 54.17 84.83 54.17ZM84.66 52.19C86.81 52.03 88.95 52.03 91.25 52.03C91.75 52.03 92.41 52.19 92.57 51.53C92.57 50.71 91.91 50.71 91.25 50.71C86.97 50.71 82.52 50.87 78.24 50.87C77.75 50.87 77.09 50.87 77.25 51.7C77.25 52.36 77.91 52.19 78.24 52.19C80.38 52.19 82.52 52.19 84.66 52.19ZM92.9 57.48C92.9 57.31 92.9 57.15 92.9 56.98C87.96 56.98 83.02 56.98 78.08 56.98C78.08 57.15 78.08 57.31 78.08 57.48C83.02 57.48 87.96 57.48 92.9 57.48ZM77.75 49.88C82.19 49.88 86.48 49.88 90.92 49.88C90.92 49.71 90.92 49.55 90.92 49.38C86.48 48.56 82.03 48.56 77.75 49.88ZM78.24 58.8C78.24 58.96 78.24 59.13 78.24 59.29C83.02 59.29 87.96 59.29 92.74 59.29C92.74 59.13 92.74 58.96 92.74 58.8C87.96 58.8 83.18 58.8 78.24 58.8Z" fill="#FFFFFF" fill-opacity="1.000000" fill-rule="nonzero"/>
		<path d="M50.9 65.08C50.9 62.6 51.22 60.12 52.54 57.97C54.03 55.5 56.33 55.33 57.65 57.97C60.12 62.6 60.12 67.39 57.65 72.01C56.33 74.66 54.03 74.49 52.54 72.01C51.22 70.03 50.9 67.55 50.9 65.08ZM56.33 64.75C56.17 63.75 56.33 62.1 55.01 62.1C53.7 62.1 53.7 63.59 53.7 64.75C53.7 65.74 53.53 67.39 55.01 67.39C56.33 67.22 56 65.74 56.33 64.75Z" fill="#FFFFFF" fill-opacity="1.000000" fill-rule="nonzero"/>
		<path d="M69.51 71.35C77.09 70.86 84.66 70.2 92.41 69.7C95.21 69.54 97.68 66.23 97.02 63.42C96.86 62.43 96.03 61.94 95.21 61.28C96.53 60.62 97.68 60.78 98.5 61.44C99.33 62.1 98.67 63.09 98.67 63.75C98.67 64.41 98.34 65.08 98.17 65.74C97.02 70.03 96.03 70.86 91.58 71.19C83.02 71.85 74.62 72.67 66.05 73.33C62.92 73.66 61.93 72.84 61.27 69.54C62.26 70.2 62.92 71.35 64.24 71.52C64.57 71.52 64.9 71.35 65.06 71.35C66.22 71.35 67.53 71.19 68.69 71.19C69.02 71.35 69.35 71.35 69.51 71.35Z" fill="#FFFFFF" fill-opacity="1.000000" fill-rule="nonzero"/>
		<path d="M33.44 55.5C35.41 57.31 35.91 61.94 34.26 63.92C33.44 64.91 32.61 64.75 32.12 63.75C31.79 63.09 31.46 62.43 31.13 61.77C29.32 63.59 28.99 63.59 27.84 61.28C27.51 60.45 27.18 60.29 26.68 60.95C26.02 61.77 25.36 61.28 25.04 60.62C23.88 58.8 24.21 55.83 25.86 54.17C27.18 54.5 27.18 55.83 27.67 56.98C28.33 55.83 28.49 54.5 30.14 54.67C30.47 55.5 30.96 56.16 31.29 56.98C31.95 56.32 32.12 55.17 33.44 55.5Z" fill="#FFFFFF" fill-opacity="1.000000" fill-rule="nonzero"/>
		<path d="M33.43 55.5C32.61 54.01 31.29 54.67 29.98 54.67C28.66 53.84 27.17 54.01 25.69 53.84C25.53 53.84 25.53 53.84 25.36 53.68C25.36 53.51 25.36 53.18 25.36 53.02C30.47 53.35 35.41 53.51 40.52 53.84C44.14 54.01 44.8 53.35 44.8 49.71C44.8 42.94 44.8 36.17 45.13 29.4C46.12 31.21 45.95 33.03 46.12 35.01C46.78 41.62 46.94 48.23 46.12 54.67C45.95 55.83 45.62 55.99 44.47 55.83C41.34 55.33 38.21 55 35.08 54.83C34.42 55 33.6 54.34 33.43 55.5Z" fill="#FFFFFF" fill-opacity="1.000000" fill-rule="nonzero"/>
		<path d="M93.4 63.59C92.74 67.39 91.91 68.05 88.46 68.21C85.82 68.38 83.18 68.54 80.55 68.71C78.74 68.71 77.25 66.56 78.08 64.91C78.24 64.41 78.74 64.41 79.23 64.41C84.01 64.08 88.62 63.75 93.4 63.59Z" fill="#FFFFFF" fill-opacity="1.000000" fill-rule="nonzero"/>
		<path d="M36.4 42.28C36.4 35.34 36.9 28.41 37.88 21.47C38.05 20.15 39.04 19.98 40.03 19.82C43.98 19.16 47.11 20.64 49.91 23.29C51.39 24.61 52.71 26.26 53.04 28.41C51.72 26.92 50.24 25.6 48.59 24.44C47.11 23.29 45.46 22.46 43.65 21.96C41.18 21.3 39.53 22.46 39.2 24.94C38.05 30.72 37.55 36.5 37.22 42.45C36.9 42.28 36.73 42.28 36.4 42.28Z" fill="#FFFFFF" fill-opacity="1.000000" fill-rule="nonzero"/>
		<path d="M70.99 53.02C68.19 52.52 65.56 51.53 62.59 51.04C55.84 50.04 53.2 51.37 50.4 57.48C49.58 59.46 48.59 59.96 46.61 59.46C44.47 58.8 42.17 58.63 40.02 58.14C42.17 57.81 44.31 57.97 46.45 58.3C47.6 58.47 48.26 58.14 48.75 57.15C49.58 55.83 50.4 54.5 51.23 53.18C53.2 50.21 56 49.05 59.3 49.38C63.58 49.55 67.53 50.87 70.99 53.02Z" fill="#FFFFFF" fill-opacity="1.000000" fill-rule="nonzero"/>
		<path d="M54.85 6.11C57.49 4.95 58.97 3.3 59.79 0.66C60.78 3.13 61.77 5.28 64.73 6.11C62.43 6.93 60.62 7.92 59.79 10.57C58.97 7.92 57.49 6.6 54.85 6.11Z" fill="#FFFFFF" fill-opacity="1.000000" fill-rule="nonzero"/>
		<path d="M65.23 71.52C64.9 71.52 64.57 71.68 64.41 71.68C65.23 70.53 63.91 70.36 63.42 70.03C62.43 68.71 61.44 67.55 61.61 65.9C61.77 64.41 62.43 63.59 64.08 63.59C66.05 63.59 67.86 63.75 70.34 64.25C69.02 65.08 68.03 64.58 67.21 64.75C65.72 64.91 64.08 64.75 63.58 66.56C63.25 67.72 65.56 69.87 67.21 69.87C68.69 70.03 70.17 70.03 71.49 70.03C71.32 70.2 71.16 70.53 71.16 70.69C70.66 70.69 70.17 70.69 69.68 70.86C69.18 70.69 69.18 71.02 69.51 71.35C69.35 71.35 69.02 71.35 68.85 71.35C68.03 70.53 66.05 70.69 65.23 71.52Z" fill="#FFFFFF" fill-opacity="1.000000" fill-rule="nonzero"/>
		<path d="M78.41 61.61C83.68 61.61 88.78 61.61 94.05 61.61C84.34 62.27 74.62 63.75 64.73 61.61C68.69 61.61 72.64 61.61 76.59 61.61C77.25 61.94 77.75 61.94 78.41 61.61Z" fill="#FFFFFF" fill-opacity="1.000000" fill-rule="nonzero"/>
		<path d="M51.88 16.02C51.55 14.03 50.24 13.37 48.42 12.88C50.24 12.05 51.39 10.9 52.05 9.08C53.04 10.73 53.7 12.38 55.84 12.88C54.03 13.54 52.87 14.53 51.88 16.02Z" fill="#FFFFFF" fill-opacity="1.000000" fill-rule="nonzero"/>
		<path d="M38.38 63.42C40.52 63.26 42 64.08 43.65 64.41C45.3 64.75 47.11 65.41 48.75 65.74C50.24 65.9 50.73 66.73 50.57 68.38C46.45 66.73 42.66 65.24 38.38 63.42Z" fill="#FFFFFF" fill-opacity="1.000000" fill-rule="nonzero"/>
		<path d="M18.12 53.51C18.94 54.83 18.94 56.16 18.45 57.48C18.12 58.3 17.62 58.96 16.8 57.81C16.63 57.64 16.63 56.98 16.3 57.15C14.49 57.81 14.82 56.49 14.66 55.5C14.49 53.35 14.82 53.02 17.13 53.35C17.29 53.51 17.79 53.51 18.12 53.51Z" fill="#FFFFFF" fill-opacity="1.000000" fill-rule="nonzero"/>
		<path d="M67.86 60.29C66.71 60.29 65.72 59.79 65.72 58.63C65.55 57.31 66.71 56.82 67.86 56.82C68.85 56.82 69.84 57.31 69.84 58.47C69.84 59.62 68.85 60.12 67.86 60.29Z" fill="#FFFFFF" fill-opacity="1.000000" fill-rule="nonzero"/>
		<path d="M71.65 68.21C70.99 68.05 70.5 68.21 70 68.54C69.51 68.87 68.85 68.87 68.36 68.38C68.03 67.88 67.86 67.39 68.19 66.89C68.69 66.23 69.18 66.07 69.84 66.4C70.33 66.73 70.99 66.73 71.49 66.4C71.98 66.23 72.47 66.23 72.97 66.56C73.3 66.89 73.3 67.22 73.13 67.72C72.8 68.38 72.31 68.38 71.65 68.21Z" fill="#FFFFFF" fill-opacity="1.000000" fill-rule="nonzero"/>
		<path d="M72.64 60.29C71.82 60.12 70.66 60.12 70.66 58.96C70.66 57.81 71.82 57.81 72.64 57.81C73.46 57.81 74.78 57.81 74.62 59.13C74.62 60.12 73.63 60.12 72.64 60.29Z" fill="#FFFFFF" fill-opacity="1.000000" fill-rule="nonzero"/>
		<path d="M36.4 42.28C36.57 42.28 36.9 42.28 37.06 42.28C36.9 44.1 36.9 46.08 36.73 47.9C36.57 47.9 36.57 47.9 36.4 47.9C36.4 46.08 36.4 44.26 36.4 42.28Z" fill="#FFFFFF" fill-opacity="1.000000" fill-rule="nonzero"/>
		<path d="M52.87 18.83C52.87 18.99 52.87 19.16 52.87 19.32C51.06 19.16 49.41 18.99 47.6 18.83C49.41 18.5 51.22 18.33 52.87 18.83Z" fill="#FFFFFF" fill-opacity="1.000000" fill-rule="nonzero"/>
		<path d="M20.92 53.35C20.92 53.18 20.92 53.02 20.92 52.85C22.4 52.85 23.88 53.02 25.2 53.02C25.2 53.18 25.2 53.51 25.2 53.68C23.88 53.68 22.4 53.51 20.92 53.35Z" fill="#FFFFFF" fill-opacity="1.000000" fill-rule="nonzero"/>
		<path d="M71.16 70.36C71.32 70.2 71.49 69.87 71.49 69.7C72.48 69.7 73.46 69.7 74.95 69.7C73.3 70.36 72.31 70.53 71.16 70.36Z" fill="#FFFFFF" fill-opacity="1.000000" fill-rule="nonzero"/>
		<path d="M63.58 61.77C63.41 61.94 63.25 61.94 63.25 61.77C63.09 61.77 63.09 61.61 62.92 61.61C63.09 61.61 63.09 61.61 63.25 61.61C63.41 61.77 63.58 61.77 63.58 61.77Z" fill="#FFFFFF" fill-opacity="1.000000" fill-rule="nonzero"/>
		<path d="M78.4 61.61C77.75 61.77 77.25 61.77 76.59 61.61C76.59 61.44 76.76 61.44 76.76 61.28C77.25 61.28 77.58 61.28 78.08 61.28C78.24 61.44 78.24 61.61 78.4 61.61Z" fill="#FFFFFF" fill-opacity="1.000000" fill-rule="nonzero"/>
	</g>
</svg>
