<svg width="18.000000" height="19.000000" viewBox="0 0 18 19" fill="none" xmlns="http://www.w3.org/2000/svg" xmlns:xlink="http://www.w3.org/1999/xlink">
	<desc>
			Created with Pixso.
	</desc>
	<defs>
		<clipPath id="clip32433_0">
			<rect width="18.000000" height="19.000000" fill="white" fill-opacity="0"/>
		</clipPath>
	</defs>
	<rect width="18.000000" height="19.000000" fill="#FFFFFF" fill-opacity="0"/>
	<g clip-path="url(#clip32433_0)">
		<path d="M0 9.59C0 9.59 0.01 9.59 0.01 9.59C0.01 9.74 0.01 9.89 0.01 10.04L0 10.04L0 10.04C0 9.89 0 9.74 0 9.59Z" fill="#FFFFFF" fill-opacity="1.000000" fill-rule="nonzero"/>
		<path d="M13.58 17.88C13.1 17.88 12.7 17.75 12.31 17.57C11.59 17.25 10.94 16.82 10.29 16.38C9.65 15.96 9.03 15.52 8.41 15.06C8.01 14.76 7.66 14.41 7.31 14.07C6.38 13.17 5.56 12.18 4.9 11.06C4.36 10.15 3.94 9.18 3.58 8.19C3.35 7.56 3.12 6.94 2.94 6.3C2.71 5.52 2.51 4.73 2.39 3.93C2.25 2.99 2.58 2.24 3.24 1.61C3.81 1.08 4.45 0.65 5.09 0.23C5.13 0.2 5.18 0.18 5.22 0.15C5.51 -0.05 5.82 -0.05 6.13 0.11C6.41 0.25 6.62 0.48 6.82 0.72C7.26 1.25 7.58 1.87 7.89 2.5C8.12 2.99 8.33 3.5 8.54 4.01C8.65 4.27 8.61 4.5 8.45 4.72C8.28 4.95 8.05 5.11 7.8 5.25C7.29 5.54 6.74 5.73 6.17 5.89C6 5.94 5.83 5.98 5.65 6.02C5.57 6.04 5.56 6.07 5.58 6.14C5.73 6.76 5.93 7.36 6.18 7.95C6.86 9.56 7.79 11 9.03 12.23C9.73 12.91 10.49 13.49 11.33 13.97C11.4 14.01 11.42 14.01 11.45 13.93C11.74 13.16 12.13 12.46 12.69 11.87C12.9 11.65 13.12 11.46 13.4 11.34C13.57 11.27 13.74 11.27 13.9 11.37C14.26 11.58 14.58 11.84 14.88 12.12C15.5 12.68 16.06 13.29 16.5 14.02C16.7 14.35 16.88 14.7 16.93 15.1C16.95 15.24 16.95 15.38 16.92 15.52C16.89 15.65 16.83 15.77 16.72 15.87C16.22 16.3 15.74 16.75 15.22 17.16C14.85 17.44 14.48 17.7 14.02 17.82C13.87 17.86 13.7 17.88 13.58 17.88Z" fill="#FFFFFF" fill-opacity="1.000000" fill-rule="nonzero"/>
		<path d="M0.01 10.04C0.01 9.89 0.01 9.74 0.01 9.59C0.04 8.55 0.22 7.55 0.58 6.58C0.8 5.98 1.07 5.42 1.4 4.89C1.41 4.87 1.43 4.85 1.45 4.83C1.5 5.06 1.55 5.27 1.6 5.49C1.67 5.77 1.74 6.04 1.81 6.32C1.83 6.38 1.82 6.44 1.79 6.5C1.23 7.8 1.01 9.15 1.14 10.56C1.39 13.38 3.14 15.91 5.65 17.11C6.84 17.68 8.08 17.93 9.38 17.87C9.69 17.85 10 17.82 10.3 17.77C10.33 17.76 10.37 17.76 10.4 17.78C10.83 18.06 11.28 18.32 11.76 18.54C11.61 18.61 11.47 18.64 11.33 18.68C10.36 18.95 9.36 19.05 8.35 18.97C6.03 18.78 4.05 17.81 2.45 16.09C1.29 14.83 0.54 13.35 0.19 11.65C0.08 11.12 0.03 10.58 0.01 10.04Z" fill="#FFFFFF" fill-opacity="1.000000" fill-rule="nonzero"/>
		<path d="M17.33 13.27C17.16 13.01 16.99 12.78 16.81 12.56C16.73 12.47 16.67 12.38 16.59 12.3C16.55 12.25 16.54 12.21 16.56 12.14C16.8 11.33 16.91 10.5 16.9 9.65C16.86 6.31 14.72 3.28 11.63 2.18C10.73 1.86 9.79 1.7 8.83 1.72C8.76 1.72 8.72 1.7 8.68 1.63C8.53 1.32 8.36 1.01 8.17 0.72C8.13 0.66 8.14 0.64 8.21 0.63C9.54 0.52 10.83 0.69 12.08 1.16C14.88 2.2 17.05 4.67 17.74 7.62C18 8.72 18.06 9.83 17.92 10.94C17.83 11.74 17.63 12.51 17.33 13.27Z" fill="#FFFFFF" fill-opacity="1.000000" fill-rule="nonzero"/>
	</g>
</svg>
