<svg width="8.000000" height="9.000000" viewBox="0 0 8 9" fill="none" xmlns="http://www.w3.org/2000/svg" xmlns:xlink="http://www.w3.org/1999/xlink">
	<desc>
			Created with Pixso.
	</desc>
	<defs/>
	<path id="Union" d="M-0.572266 -0.178711C-0.175781 -0.574219 0.446289 -0.574219 0.841797 -0.178711L3.47754 2.45703L6.11328 -0.178711C6.50879 -0.574219 7.13184 -0.574219 7.52734 -0.178711C7.92383 0.217773 7.92383 0.839844 7.52734 1.23535L4.8916 3.87109L7.52734 6.50684C7.92383 6.90234 7.92383 7.52539 7.52734 7.9209C7.13184 8.31738 6.50879 8.31738 6.11328 7.9209L3.47754 5.28516L0.841797 7.9209C0.446289 8.31738 -0.175781 8.31738 -0.572266 7.9209C-0.967773 7.52539 -0.967773 6.90234 -0.572266 6.50684L2.06348 3.87109L-0.572266 1.23535C-0.967773 0.839844 -0.967773 0.217773 -0.572266 -0.178711Z" clip-rule="evenodd" fill="#A3A3A4" fill-opacity="1.000000" fill-rule="evenodd"/>
</svg>
